<svg width="45" height="42" viewBox="0 0 45 42" fill="none" xmlns="http://www.w3.org/2000/svg">
    <rect x="1.5" y="1.5" width="42" height="39" rx="13.5" stroke="#52057B" stroke-width="3" />
    <path fill-rule="evenodd" clip-rule="evenodd" d="M32.7574 28.5283V14.6604C32.7574 13.5708 31.7316 12.6793 30.478 12.6793H29.3383V10.6981H27.0589V12.6793H17.9412V10.6981H15.6618V12.6793H14.5221C13.257 12.6793 12.2541 13.5708 12.2541 14.6604L12.2427 28.5283C12.2427 29.6179 13.257 30.5094 14.5221 30.5094H30.478C31.7316 30.5094 32.7574 29.6179 32.7574 28.5283ZM19.0809 19.6132H16.8015V21.5943H19.0809V19.6132ZM14.5221 16.6415H30.478V14.6604H14.5221V16.6415ZM30.478 18.6226V28.5283H14.5221V18.6226H30.478ZM25.9191 21.5943H28.1986V19.6132H25.9191V21.5943ZM23.6397 21.5943H21.3603V19.6132H23.6397V21.5943Z" fill="#52057B" />
</svg>
